<svg width="90" height="73" xmlns="http://www.w3.org/2000/svg">


 <g>
  <title>background</title>
  <rect fill="none" id="canvas_background" height="75" width="92" y="-1" x="-1"/>
  <g display="none" overflow="visible" y="0" x="0" height="100%" width="100%" id="canvasGrid">
   <rect fill="url(#gridpattern)" stroke-width="0" y="0" x="0" height="100%" width="100%"/>
  </g>
 </g>
 <g>
  <title>Layer 1</title>
  <g fill="#1197a3" stroke="null" transform="rotate(0.18121840059757233 45.06121063232108,36.93878173828322) " id="svg_31">
   <g stroke="null" transform="matrix(0.15199390692080378,0,0,0.11916256903613875,-1.2066341732616905,-0.7185267821009229) " id="svg_5">
    <g stroke="null" id="svg_6">
     <g stroke="null" id="svg_7">
      <polygon stroke="null" id="svg_8" points="478.71206799615175,10.016248245723546 91.75599804986268,116.14320137072355 517.8981031524017,116.14320137072355 "/>
      <polygon stroke="null" id="svg_9" points="478.71206799615175,10.016248245723546 91.75599804986268,116.14320137072355 517.8981031524017,116.14320137072355 "/>
     </g>
     <g stroke="null" id="svg_10">
      <path stroke="null" id="svg_11" d="m439.4839,299.007248c-21.545,0 -40.78,20.593 -40.78,42.146l0,91.432c0,21.545 19.234,36.226 40.78,36.226l161.677,0l0,-169.804l-161.677,0zm32.66,117.282c-16.233,0 -29.39,-13.156 -29.39,-29.39c0,-16.233 13.156,-29.39 29.39,-29.39c16.233,0 29.396,13.156 29.396,29.39c-0.006,16.234 -13.163,29.39 -29.396,29.39z"/>
      <path stroke="null" id="svg_12" d="m439.4839,299.007248c-21.545,0 -40.78,20.593 -40.78,42.146l0,91.432c0,21.545 19.234,36.226 40.78,36.226l161.677,0l0,-169.804l-161.677,0zm32.66,117.282c-16.233,0 -29.39,-13.156 -29.39,-29.39c0,-16.233 13.156,-29.39 29.39,-29.39c16.233,0 29.396,13.156 29.396,29.39c-0.006,16.234 -13.163,29.39 -29.396,29.39z"/>
     </g>
     <g stroke="null" id="svg_13">
      <path stroke="null" id="svg_14" d="m542.3819,504.727248c0,3.608 -2.925,6.533 -6.526,6.533c-3.608,0 -6.533,-2.925 -6.533,-6.533l0,-13.06l-90.632,0c-36.013,0 -66.106,-26.306 -66.106,-62.311l0,-91.439c0,-36.013 30.093,-68.3 66.106,-68.3l90.632,0l0,-6.526c0,-3.608 2.925,-6.533 6.533,-6.533c3.601,0 6.526,2.925 6.526,6.533l0,6.526l33.453,0l0,-85.175c0,-21.552 -17.634,-39.186 -39.186,-39.186l-489.812,0c-19.421,0 -35.612,14.329 -38.641,32.922l11.714,0c3.608,0 6.526,2.925 6.526,6.533c0,3.608 -2.918,6.533 -6.526,6.533l-12.259,0l0,385.322l5.74,0c3.608,0 6.526,2.925 6.526,6.533s-2.925,6.533 -6.526,6.533l-5.106,0c3.25,18.331 19.317,32.384 38.552,32.384l489.812,0c21.552,0 39.186,-17.634 39.186,-39.186l0,-91.163l-33.453,0l0,13.06zm-26.119,-326.542l26.12,0l0,26.126c0,3.608 -2.925,6.533 -6.526,6.533c-3.608,0 -6.533,-2.925 -6.533,-6.533l0,-13.06l-13.06,0c-3.608,0 -6.533,-2.925 -6.533,-6.533c-0.002,-3.608 2.924,-6.533 6.532,-6.533zm-84.899,0l45.713,0c3.608,0 6.533,2.925 6.533,6.533c0,3.608 -2.925,6.533 -6.533,6.533l-45.713,0c-3.608,0 -6.533,-2.925 -6.533,-6.533c-0.007,-3.608 2.918,-6.533 6.533,-6.533zm-91.432,0l45.713,0c3.608,0 6.533,2.925 6.533,6.533c0,3.608 -2.925,6.533 -6.533,6.533l-45.713,0c-3.615,0 -6.533,-2.925 -6.533,-6.533c-0.007,-3.608 2.918,-6.533 6.533,-6.533zm-235.109,411.447l-45.72,0c-3.608,0 -6.526,-2.925 -6.526,-6.533c0,-3.608 2.918,-6.533 6.526,-6.533l45.719,0c3.608,0 6.526,2.925 6.526,6.533s-2.917,6.533 -6.525,6.533zm6.526,-398.38l-45.713,0c-3.608,0 -6.533,-2.925 -6.533,-6.533c0,-3.608 2.925,-6.533 6.533,-6.533l45.713,0c3.615,0 6.526,2.925 6.526,6.533c0,3.608 -2.918,6.533 -6.526,6.533zm84.899,398.38l-45.719,0c-3.601,0 -6.526,-2.925 -6.526,-6.533c0,-3.608 2.925,-6.533 6.526,-6.533l45.719,0c3.608,0 6.526,2.925 6.526,6.533c0.007,3.608 -2.911,6.533 -6.526,6.533zm6.533,-398.38l-45.713,0c-3.608,0 -6.533,-2.925 -6.533,-6.533c0,-3.608 2.925,-6.533 6.533,-6.533l45.713,0c3.608,0 6.533,2.925 6.533,6.533c0,3.608 -2.925,6.533 -6.533,6.533zm84.898,398.38l-45.719,0c-3.601,0 -6.526,-2.925 -6.526,-6.533c0,-3.608 2.925,-6.533 6.526,-6.533l45.719,0c3.608,0 6.526,2.925 6.526,6.533c0.008,3.608 -2.91,6.533 -6.526,6.533zm6.534,-398.38l-45.713,0c-3.608,0 -6.533,-2.925 -6.533,-6.533c0,-3.608 2.925,-6.533 6.533,-6.533l45.713,0c3.608,0 6.533,2.925 6.533,6.533c0,3.608 -2.925,6.533 -6.533,6.533zm84.898,398.38l-45.719,0c-3.601,0 -6.526,-2.925 -6.526,-6.533c0,-3.608 2.925,-6.533 6.526,-6.533l45.719,0c3.608,0 6.526,2.925 6.526,6.533c0.008,3.608 -2.911,6.533 -6.526,6.533zm91.432,0l-45.719,0c-3.601,0 -6.526,-2.925 -6.526,-6.533c0,-3.608 2.925,-6.533 6.526,-6.533l45.719,0c3.608,0 6.526,2.925 6.526,6.533c0.008,3.608 -2.911,6.533 -6.526,6.533zm71.839,0l-26.12,0c-3.608,0 -6.533,-2.925 -6.533,-6.533c0,-3.608 2.925,-6.533 6.533,-6.533l13.06,0l0,-19.593c0,-3.608 2.925,-6.533 6.533,-6.533c3.601,0 6.526,2.925 6.526,6.533l0.001,32.659l0,0z"/>
      <path stroke="null" id="svg_15" d="m542.3819,504.727248c0,3.608 -2.925,6.533 -6.526,6.533c-3.608,0 -6.533,-2.925 -6.533,-6.533l0,-13.06l-90.632,0c-36.013,0 -66.106,-26.306 -66.106,-62.311l0,-91.439c0,-36.013 30.093,-68.3 66.106,-68.3l90.632,0l0,-6.526c0,-3.608 2.925,-6.533 6.533,-6.533c3.601,0 6.526,2.925 6.526,6.533l0,6.526l33.453,0l0,-85.175c0,-21.552 -17.634,-39.186 -39.186,-39.186l-489.812,0c-19.421,0 -35.612,14.329 -38.641,32.922l11.714,0c3.608,0 6.526,2.925 6.526,6.533c0,3.608 -2.918,6.533 -6.526,6.533l-12.259,0l0,385.322l5.74,0c3.608,0 6.526,2.925 6.526,6.533s-2.925,6.533 -6.526,6.533l-5.106,0c3.25,18.331 19.317,32.384 38.552,32.384l489.812,0c21.552,0 39.186,-17.634 39.186,-39.186l0,-91.163l-33.453,0l0,13.06zm-26.119,-326.542l26.12,0l0,26.126c0,3.608 -2.925,6.533 -6.526,6.533c-3.608,0 -6.533,-2.925 -6.533,-6.533l0,-13.06l-13.06,0c-3.608,0 -6.533,-2.925 -6.533,-6.533c-0.002,-3.608 2.924,-6.533 6.532,-6.533zm-84.899,0l45.713,0c3.608,0 6.533,2.925 6.533,6.533c0,3.608 -2.925,6.533 -6.533,6.533l-45.713,0c-3.608,0 -6.533,-2.925 -6.533,-6.533c-0.007,-3.608 2.918,-6.533 6.533,-6.533zm-91.432,0l45.713,0c3.608,0 6.533,2.925 6.533,6.533c0,3.608 -2.925,6.533 -6.533,6.533l-45.713,0c-3.615,0 -6.533,-2.925 -6.533,-6.533c-0.007,-3.608 2.918,-6.533 6.533,-6.533zm-235.109,411.447l-45.72,0c-3.608,0 -6.526,-2.925 -6.526,-6.533c0,-3.608 2.918,-6.533 6.526,-6.533l45.719,0c3.608,0 6.526,2.925 6.526,6.533s-2.917,6.533 -6.525,6.533zm6.526,-398.38l-45.713,0c-3.608,0 -6.533,-2.925 -6.533,-6.533c0,-3.608 2.925,-6.533 6.533,-6.533l45.713,0c3.615,0 6.526,2.925 6.526,6.533c0,3.608 -2.918,6.533 -6.526,6.533zm84.899,398.38l-45.719,0c-3.601,0 -6.526,-2.925 -6.526,-6.533c0,-3.608 2.925,-6.533 6.526,-6.533l45.719,0c3.608,0 6.526,2.925 6.526,6.533c0.007,3.608 -2.911,6.533 -6.526,6.533zm6.533,-398.38l-45.713,0c-3.608,0 -6.533,-2.925 -6.533,-6.533c0,-3.608 2.925,-6.533 6.533,-6.533l45.713,0c3.608,0 6.533,2.925 6.533,6.533c0,3.608 -2.925,6.533 -6.533,6.533zm84.898,398.38l-45.719,0c-3.601,0 -6.526,-2.925 -6.526,-6.533c0,-3.608 2.925,-6.533 6.526,-6.533l45.719,0c3.608,0 6.526,2.925 6.526,6.533c0.008,3.608 -2.91,6.533 -6.526,6.533zm6.534,-398.38l-45.713,0c-3.608,0 -6.533,-2.925 -6.533,-6.533c0,-3.608 2.925,-6.533 6.533,-6.533l45.713,0c3.608,0 6.533,2.925 6.533,6.533c0,3.608 -2.925,6.533 -6.533,6.533zm84.898,398.38l-45.719,0c-3.601,0 -6.526,-2.925 -6.526,-6.533c0,-3.608 2.925,-6.533 6.526,-6.533l45.719,0c3.608,0 6.526,2.925 6.526,6.533c0.008,3.608 -2.911,6.533 -6.526,6.533zm91.432,0l-45.719,0c-3.601,0 -6.526,-2.925 -6.526,-6.533c0,-3.608 2.925,-6.533 6.526,-6.533l45.719,0c3.608,0 6.526,2.925 6.526,6.533c0.008,3.608 -2.911,6.533 -6.526,6.533zm71.839,0l-26.12,0c-3.608,0 -6.533,-2.925 -6.533,-6.533c0,-3.608 2.925,-6.533 6.533,-6.533l13.06,0l0,-19.593c0,-3.608 2.925,-6.533 6.533,-6.533c3.601,0 6.526,2.925 6.526,6.533l0.001,32.659l0,0z"/>
     </g>
    </g>
   </g>
   <g stroke="null" transform="matrix(0.15199390692080378,0,0,0.11916256903613875,-1.2066341732616905,-0.7185267821009229) " id="svg_16"/>
   <g stroke="null" transform="matrix(0.15199390692080378,0,0,0.11916256903613875,-1.2066341732616905,-0.7185267821009229) " id="svg_17"/>
   <g stroke="null" transform="matrix(0.15199390692080378,0,0,0.11916256903613875,-1.2066341732616905,-0.7185267821009229) " id="svg_18"/>
   <g stroke="null" transform="matrix(0.15199390692080378,0,0,0.11916256903613875,-1.2066341732616905,-0.7185267821009229) " id="svg_19"/>
   <g stroke="null" transform="matrix(0.15199390692080378,0,0,0.11916256903613875,-1.2066341732616905,-0.7185267821009229) " id="svg_20"/>
   <g stroke="null" transform="matrix(0.15199390692080378,0,0,0.11916256903613875,-1.2066341732616905,-0.7185267821009229) " id="svg_21"/>
   <g stroke="null" transform="matrix(0.15199390692080378,0,0,0.11916256903613875,-1.2066341732616905,-0.7185267821009229) " id="svg_22"/>
   <g stroke="null" transform="matrix(0.15199390692080378,0,0,0.11916256903613875,-1.2066341732616905,-0.7185267821009229) " id="svg_23"/>
   <g stroke="null" transform="matrix(0.15199390692080378,0,0,0.11916256903613875,-1.2066341732616905,-0.7185267821009229) " id="svg_24"/>
   <g stroke="null" transform="matrix(0.15199390692080378,0,0,0.11916256903613875,-1.2066341732616905,-0.7185267821009229) " id="svg_25"/>
   <g stroke="null" transform="matrix(0.15199390692080378,0,0,0.11916256903613875,-1.2066341732616905,-0.7185267821009229) " id="svg_26"/>
   <g stroke="null" transform="matrix(0.15199390692080378,0,0,0.11916256903613875,-1.2066341732616905,-0.7185267821009229) " id="svg_27"/>
   <g stroke="null" transform="matrix(0.15199390692080378,0,0,0.11916256903613875,-1.2066341732616905,-0.7185267821009229) " id="svg_28"/>
   <g stroke="null" transform="matrix(0.15199390692080378,0,0,0.11916256903613875,-1.2066341732616905,-0.7185267821009229) " id="svg_29"/>
   <g stroke="null" transform="matrix(0.15199390692080378,0,0,0.11916256903613875,-1.2066341732616905,-0.7185267821009229) " id="svg_30"/>
  </g>
 </g>
</svg>