<svg width="90" height="65" xmlns="http://www.w3.org/2000/svg">
 <!-- Created with Method Draw - http://github.com/duopixel/Method-Draw/ -->

 <g>
  <title>background</title>
  <rect fill="none" id="canvas_background" height="67" width="92" y="-1" x="-1"/>
 </g>
 <g>
  <title>Layer 1</title>
  <g fill="#1197a3" stroke="null" id="svg_4">
   <g stroke="null" id="svg_5">
    <path stroke="null" id="svg_6" d="m83.452136,1l-76.428084,0c-3.445978,0 -6.250189,2.721283 -6.250189,6.065353l0,51.154934c0,3.344071 2.804211,6.065353 6.250189,6.065353l76.428084,0c3.445978,0 6.250189,-2.721283 6.250189,-6.065353l0,-51.154934c0,-3.344071 -2.804211,-6.065353 -6.250189,-6.065353zm3.285907,57.220288c0,1.757615 -1.473248,3.188733 -3.285907,3.188733l-76.428084,0c-1.812658,0 -3.285907,-1.431118 -3.285907,-3.188733l0,-51.154934c0,-1.757615 1.473248,-3.188733 3.285907,-3.188733l76.428084,0c1.812658,0 3.285907,1.431118 3.285907,3.188733l0,51.154934z"/>
    <path stroke="null" id="svg_7" d="m24.488119,42.710991l-13.339269,0c-0.819624,0 -1.482141,0.644363 -1.482141,1.43831s0.662517,1.43831 1.482141,1.43831l13.339269,0c0.819624,0 1.482141,-0.644363 1.482141,-1.43831s-0.662517,-1.43831 -1.482141,-1.43831z"/>
    <path stroke="null" id="svg_8" d="m43.755953,42.710991l-13.339269,0c-0.819624,0 -1.482141,0.644363 -1.482141,1.43831s0.662517,1.43831 1.482141,1.43831l13.339269,0c0.819624,0 1.482141,-0.644363 1.482141,-1.43831s-0.662517,-1.43831 -1.482141,-1.43831z"/>
    <path stroke="null" id="svg_9" d="m12.630991,49.902541l-1.482141,0c-0.819624,0 -1.482141,0.644363 -1.482141,1.43831s0.662517,1.43831 1.482141,1.43831l1.482141,0c0.819624,0 1.482141,-0.644363 1.482141,-1.43831s-0.662517,-1.43831 -1.482141,-1.43831z"/>
    <path stroke="null" id="svg_10" d="m21.523837,49.902541l-2.964282,0c-0.819624,0 -1.482141,0.644363 -1.482141,1.43831s0.662517,1.43831 1.482141,1.43831l2.964282,0c0.819624,0 1.482141,-0.644363 1.482141,-1.43831s-0.662517,-1.43831 -1.482141,-1.43831z"/>
    <path stroke="null" id="svg_11" d="m28.934543,49.902541l-1.482141,0c-0.819624,0 -1.482141,0.644363 -1.482141,1.43831s0.662517,1.43831 1.482141,1.43831l1.482141,0c0.819624,0 1.482141,-0.644363 1.482141,-1.43831s-0.662517,-1.43831 -1.482141,-1.43831z"/>
    <path stroke="null" id="svg_12" d="m37.827389,49.902541l-2.964282,0c-0.819624,0 -1.482141,0.644363 -1.482141,1.43831s0.662517,1.43831 1.482141,1.43831l2.964282,0c0.819624,0 1.482141,-0.644363 1.482141,-1.43831s-0.662517,-1.43831 -1.482141,-1.43831z"/>
    <path stroke="null" id="svg_13" d="m42.703633,50.319651c-0.268268,0.273279 -0.429821,0.64724 -0.429821,1.0212c0,0.373961 0.161553,0.747921 0.429821,1.0212c0.280125,0.258896 0.666963,0.41711 1.05232,0.41711s0.770713,-0.158214 1.05232,-0.41711c0.266785,-0.273279 0.429821,-0.64724 0.429821,-1.0212c0,-0.373961 -0.163036,-0.747921 -0.429821,-1.0212c-0.563214,-0.532175 -1.572552,-0.532175 -2.10464,0z"/>
    <path stroke="null" id="svg_14" d="m71.916632,36.957751c-1.891212,0 -3.659406,0.50197 -5.187494,1.36208c-1.528087,-0.860109 -3.296282,-1.36208 -5.187494,-1.36208c-5.719582,0 -10.374987,4.516293 -10.374987,10.06817s4.655405,10.06817 10.374987,10.06817c1.891212,0 3.659406,-0.50197 5.187494,-1.36208c1.528087,0.860109 3.296282,1.36208 5.187494,1.36208c5.719582,0 10.374987,-4.516293 10.374987,-10.06817s-4.655405,-10.06817 -10.374987,-10.06817zm-2.964282,10.06817c0,2.005004 -0.853713,3.817275 -2.223212,5.12326c-1.369498,-1.305986 -2.223212,-3.118256 -2.223212,-5.12326s0.853713,-3.817275 2.223212,-5.12326c1.369498,1.305986 2.223212,3.118256 2.223212,5.12326zm-14.82141,0c0,-3.965421 3.324442,-7.19155 7.410705,-7.19155c0.935231,0 1.823033,0.18698 2.648586,0.496217c-1.64073,1.780628 -2.648586,4.123635 -2.648586,6.695333s1.007856,4.914705 2.648586,6.695333c-0.825553,0.309237 -1.713355,0.496217 -2.648586,0.496217c-4.086263,0 -7.410705,-3.226129 -7.410705,-7.19155zm17.785692,7.19155c-0.935231,0 -1.823033,-0.18698 -2.648586,-0.496217c1.64073,-1.780628 2.648586,-4.123635 2.648586,-6.695333s-1.007856,-4.914705 -2.648586,-6.695333c0.825553,-0.309237 1.713355,-0.496217 2.648586,-0.496217c4.086263,0 7.410705,3.226129 7.410705,7.19155s-3.324442,7.19155 -7.410705,7.19155z"/>
    <path stroke="null" id="svg_15" d="m13.008937,32.642821l8.892846,0l2.20839,0l8.892846,0c1.842301,0 3.342228,-1.45557 3.342228,-3.243389l0,-11.50648l0,-2.143082c0,-1.787819 -1.499927,-3.243389 -3.342228,-3.243389l-11.101236,0l-8.892846,0c-1.842301,0 -3.342228,1.45557 -3.342228,3.243389l0,13.649562c0,1.787819 1.499927,3.243389 3.342228,3.243389zm5.550618,-8.62986l-5.928564,0l0,-2.87662l5.928564,0l0,2.87662zm-5.928564,5.386471l0,-2.509851l5.928564,0l0,2.509851c0,0.125133 0.023714,0.244513 0.038536,0.366769l-5.589154,0c-0.208982,0 -0.377946,-0.163967 -0.377946,-0.366769zm20.749974,-5.386471l-5.928564,0l0,-2.509851c0,-0.202802 0.168964,-0.366769 0.377946,-0.366769l5.172672,0c0.128946,0 0.251964,-0.023013 0.377946,-0.037396l0,2.914016zm-0.377946,5.75324l-5.589154,0c0.014821,-0.122256 0.038536,-0.241636 0.038536,-0.366769l0,-2.509851l5.928564,0l0,2.509851c0,0.202802 -0.168964,0.366769 -0.377946,0.366769zm0,-14.3831c0.208982,0 0.377946,0.163967 0.377946,0.366769l0,2.143082c0,0.202802 -0.168964,0.366769 -0.377946,0.366769l-5.172672,0c-1.842301,0 -3.342228,1.45557 -3.342228,3.243389l0,7.896322c0,0.202802 -0.168964,0.366769 -0.377946,0.366769l-2.20839,0c-0.208982,0 -0.377946,-0.163967 -0.377946,-0.366769l0,-13.649562c0,-0.202802 0.168964,-0.366769 0.377946,-0.366769l11.101236,0zm-19.994082,0l5.589154,0c-0.014821,0.122256 -0.038536,0.241636 -0.038536,0.366769l0,2.509851l-5.928564,0l0,-2.509851c0,-0.202802 0.168964,-0.366769 0.377946,-0.366769z"/>
   </g>
   <g stroke="null" id="svg_16"/>
   <g stroke="null" id="svg_17"/>
   <g stroke="null" id="svg_18"/>
   <g stroke="null" id="svg_19"/>
   <g stroke="null" id="svg_20"/>
   <g stroke="null" id="svg_21"/>
   <g stroke="null" id="svg_22"/>
   <g stroke="null" id="svg_23"/>
   <g stroke="null" id="svg_24"/>
   <g stroke="null" id="svg_25"/>
   <g stroke="null" id="svg_26"/>
   <g stroke="null" id="svg_27"/>
   <g stroke="null" id="svg_28"/>
   <g stroke="null" id="svg_29"/>
   <g stroke="null" id="svg_30"/>
  </g>
 </g>
</svg>