<?xml version="1.0" encoding="iso-8859-1"?>
<!-- Generator: Adobe Illustrator 19.0.0, SVG Export Plug-In . SVG Version: 6.00 Build 0)  -->
<svg version="1.1" id="Capa_1" xmlns="http://www.w3.org/2000/svg" xmlns:xlink="http://www.w3.org/1999/xlink" x="0px" y="0px"
	 viewBox="0 0 512 512" style="enable-background:new 0 0 512 512;" xml:space="preserve">
<g>
	<g>
		<path fill="#9aa0ab" d="M319.539,282.076h-13.62c0.111-1.358,0.183-2.728,0.183-4.114v-15.313c0-0.494-0.048-0.976-0.117-1.451
			c22.364-13.837,38.657-36.562,43.898-63.199h0.328c18.743,0,33.991-15.248,33.991-33.991c0-13.16-7.523-24.589-18.49-30.235
			c2.394-5.513,3.823-11.535,4.078-17.857c0.137-0.659,0.21-1.342,0.21-2.042C370,51.084,318.916,0,256.125,0
			c-62.322,0-113.102,50.326-113.857,112.473c-0.065,0.459-0.11,0.925-0.11,1.402c0,6.939,1.419,13.552,3.979,19.567
			C134.818,138.965,127,150.59,127,164.009C127,182.752,142.248,198,160.991,198h0.004c5.322,27.051,22.041,50.068,44.944,63.839
			c-0.022,0.268-0.041,0.537-0.041,0.81v15.313c0,1.386,0.072,2.756,0.183,4.114h-13.619C116.114,282.076,54,344.19,54,420.538V502
			c0,5.522,4.477,10,10,10h384c5.523,0,10-4.478,10-10v-81.462C458,344.19,395.886,282.076,319.539,282.076z M353.867,150.52
			c5.944,1.614,10.335,7.042,10.335,13.49c0,7.214-5.49,13.168-12.511,13.91V154c0-0.495-0.048-0.978-0.117-1.453
			C352.362,151.897,353.121,151.216,353.867,150.52z M159.187,154v23.87c-6.864-0.889-12.187-6.759-12.187-13.861
			c0-6.674,4.701-12.263,10.963-13.651c0.49,0.461,0.99,0.911,1.498,1.353C159.288,152.447,159.187,153.211,159.187,154z
			 M256.125,20c48.386,0,88.338,36.796,93.346,83.875H162.779C167.787,56.796,207.739,20,256.125,20z M163.864,123.875h184.271
			C344.003,135.585,332.824,144,319.717,144H192.283C179.176,144,167.997,135.585,163.864,123.875z M179.187,179.438v-17.186
			c4.177,1.132,8.565,1.747,13.096,1.747h19.574c-2.153,2.039-3.504,4.915-3.504,8.106c0,6.163,5.014,11.177,11.178,11.177
			s11.178-5.014,11.178-11.177c0-3.192-1.352-6.068-3.504-8.106h57.592c-2.153,2.039-3.504,4.915-3.504,8.106
			c0,6.163,5.014,11.177,11.178,11.177s11.178-5.014,11.178-11.177c0-3.192-1.352-6.068-3.504-8.106h19.574
			c4.127,0,8.135-0.511,11.974-1.456v16.895c0,41.97-34.207,76.115-76.252,76.115C213.393,255.554,179.187,221.409,179.187,179.438z
			 M286.102,270.552v7.41C286.102,294.525,272.598,308,256,308c-16.598,0-30.102-13.475-30.102-30.038v-7.045
			c9.313,3.006,19.239,4.637,29.541,4.637C266.155,275.554,276.467,273.794,286.102,270.552z M144,491.761h-4V475
			c0-3.806,1.527-7.263,4-9.789V491.761z M214.402,491.761H164V451v-57.26h50.402V491.761z M214.221,373.74h-44.934L180.541,348
			h37.332L214.221,373.74z M277.598,491.761h-43.195V393.74h43.195V491.761z M234.422,373.74l3.652-25.74h35.85l3.654,25.74H234.422
			z M348,451v40.761h-50.402V393.74H348V451z M294.124,348h37.322l11.263,25.74h-44.931L294.124,348z M372,491.761h-4v-26.55
			c2.473,2.526,4,5.983,4,9.789V491.761z M438,492h-46v-17c0-15.269-10.118-28.217-24-32.497V383.74
			c0-1.354-0.282-2.773-0.839-4.009l-20.015-45.74c-1.592-3.64-5.188-5.991-9.161-5.991h-55.382H256h-26.608h-55.393
			c-3.974,0-7.57,2.353-9.163,5.994l-19.999,45.74c-0.551,1.24-0.837,2.649-0.837,4.006v58.763c-13.882,4.281-24,17.228-24,32.497
			v17H74v-71.462c0-65.32,53.142-118.462,118.462-118.462h19.655C220.657,317.516,237.123,328,256,328s35.343-10.484,43.883-25.924
			h19.656c65.32,0,118.461,53.142,118.461,118.462V492z"/>
	</g>
</g>
<g>
	<g>
		<path fill="#9aa0ab" d="M280.035,207.904c-3.905-3.905-10.237-3.905-14.142,0c-2.642,2.643-6.156,4.098-9.893,4.098s-7.25-1.455-9.893-4.098
			c-3.904-3.906-10.237-3.904-14.142,0c-3.905,3.905-3.906,10.237,0,14.142c6.42,6.42,14.956,9.956,24.035,9.956
			c9.079,0,17.615-3.535,24.035-9.956C283.94,218.141,283.94,211.809,280.035,207.904z"/>
	</g>
</g>
<g>
	<g>
		<path fill="#9aa0ab" d="M329.952,82.476c-7.77-18.247-21.95-32.919-39.93-41.313c-5.004-2.337-10.956-0.173-13.292,4.831
			c-2.336,5.004-0.174,10.955,4.831,13.292c13.505,6.305,24.155,17.323,29.99,31.026c1.62,3.803,5.317,6.085,9.205,6.085
			c1.307,0,2.635-0.258,3.913-0.802C329.75,93.43,332.115,87.557,329.952,82.476z"/>
	</g>
</g>
<g>
	<g>
		<path fill="#9aa0ab" d="M256.258,33.667c-0.013,0-0.12,0-0.133,0c-5.515,0-9.942,4.465-9.953,9.98c-0.011,5.515,4.493,9.998,10.008,10.02
			c0.013,0,0.12,0,0.133,0c5.515,0,9.942-4.465,9.953-9.98C266.277,38.172,261.773,33.688,256.258,33.667z"/>
	</g>
</g>
<g>
</g>
<g>
</g>
<g>
</g>
<g>
</g>
<g>
</g>
<g>
</g>
<g>
</g>
<g>
</g>
<g>
</g>
<g>
</g>
<g>
</g>
<g>
</g>
<g>
</g>
<g>
</g>
<g>
</g>
</svg>
