<svg width="90" height="73" xmlns="http://www.w3.org/2000/svg">

 <g>
  <title>background</title>
  <rect fill="none" id="canvas_background" height="75" width="92" y="-1" x="-1"/>
 </g>
 <g>
  <title>Layer 1</title>
  <g fill="#1197a3" stroke="null" id="svg_1">
   <path stroke="null" id="svg_2" d="m22.634898,22.158007c0.267113,-0.411397 0.342606,-0.94089 0.231184,-1.618455c-0.109925,-0.669295 -0.35394,-1.144521 -0.745948,-1.45281c-0.3888,-0.305705 -0.919817,-0.380129 -1.575515,-0.222754l-2.132623,0.511404l0.683928,4.163069l2.087285,-0.500809c0.692269,-0.165644 1.180514,-0.461788 1.45169,-0.879645z"/>
   <path stroke="null" id="svg_3" d="m82.718121,31.563805c-0.346883,-0.087861 -0.674518,-0.171071 -0.966652,-0.262808c-3.227593,-1.01428 -4.828985,-1.618455 -5.951114,-4.236459l-4.211782,-10.303791c-1.344331,-3.135869 -4.815726,-5.687202 -7.738138,-5.687202l-7.560847,0l0,-7.023726c0,-2.095748 -1.411056,-3.800771 -3.145898,-3.800771l-50.186156,0.063312c-1.686081,0 -2.957486,1.62078 -2.957486,3.77002l0,52.578456c0,2.095748 1.411056,3.800771 3.14547,3.800771l5.487463,0c0.819516,7.002536 5.810394,12.407291 11.828874,12.407291c6.018908,0 11.010214,-5.404496 11.82973,-12.407291l19.995163,0c0.131738,0 0.266471,-0.008786 0.401845,-0.02119c0.811817,7.012873 5.806544,12.428481 11.831227,12.428481c6.018908,0 11.010214,-5.404496 11.82973,-12.407291l7.858542,0c3.038539,0 5.510347,-2.986763 5.510347,-6.658068l0,-11.422987c0.000428,-9.041949 -4.212637,-10.109979 -7.000317,-10.816745zm-73.947413,-2.708967l1.094755,6.663495l-3.081098,0.739068l-2.717748,-16.543226l9.570928,-2.295761l0.490384,2.984954l-6.489831,1.556693l0.642225,3.909564l5.560176,-1.333681l0.49017,2.985213l-5.559962,1.333681zm11.691362,34.926886c-2.441225,0 -4.42714,-2.399902 -4.42714,-5.349712c0,-2.94981 1.985915,-5.349712 4.42714,-5.349712c2.442081,0 4.428851,2.399902 4.428851,5.349712c0,2.94981 -1.98677,5.349712 -4.428851,5.349712zm5.080486,-32.024108l-0.066511,-0.041605c-0.328918,-0.206215 -0.587904,-0.61141 -0.769686,-1.204473c-0.166598,-0.543706 -0.29299,-1.074232 -0.37554,-1.577367l-0.186487,-1.134443c-0.119548,-0.727697 -0.375112,-1.256932 -0.759635,-1.57349c-0.384308,-0.316042 -0.879397,-0.402869 -1.474145,-0.260224l-2.324029,0.557402l1.053052,6.40999l-3.081312,0.739068l-2.717748,-16.543226l5.213935,-1.25073c1.555626,-0.373152 2.866595,-0.230506 3.896764,0.423284c1.046209,0.663869 1.706826,1.793402 1.963887,3.357072c0.14457,0.880421 0.076348,1.696238 -0.202527,2.42471c-0.215572,0.56257 -0.552617,1.080693 -1.00472,1.546098c0.6403,0.161768 1.158914,0.490731 1.546216,0.981203c0.47691,0.60495 0.802621,1.421542 0.968149,2.427553l0.193544,1.178632c0.069933,0.425868 0.192689,0.865949 0.365061,1.308615c0.159327,0.409588 0.36057,0.692811 0.59817,0.841917l0.091319,0.05711l0.099659,0.606501l-3.027419,0.726405zm4.357421,-1.045031l-2.717748,-16.543226l9.489019,-2.276121l0.490384,2.984954l-6.407708,1.537054l0.578922,3.524267l5.496446,-1.318435l0.49017,2.985213l-5.496232,1.318435l0.667675,4.063838l6.4261,-1.541447l0.490384,2.985213l-9.507412,2.280256zm10.719363,-2.571232l-2.717748,-16.543226l9.489019,-2.276121l0.490384,2.984954l-6.407708,1.537054l0.579136,3.524009l5.496232,-1.318435l0.49017,2.985213l-5.496232,1.318435l0.667675,4.063838l6.425886,-1.541447l0.490384,2.985213l-9.507198,2.280514zm23.900695,35.640371c-2.441225,0 -4.42714,-2.399902 -4.42714,-5.349712c0,-2.94981 1.985915,-5.349712 4.42714,-5.349712c2.442081,0 4.428851,2.399902 4.428851,5.349712c0,2.94981 -1.98677,5.349712 -4.428851,5.349712zm-8.230447,-33.036837l0,-14.1994l5.792429,0c2.223087,0 4.965214,2.015639 5.983621,4.389958l3.747917,9.169089c0.096665,0.225596 0.197608,0.438789 0.303469,0.640353l-15.827436,0z"/>
  </g>
  <g id="svg_4"/>
  <g id="svg_5"/>
  <g id="svg_6"/>
  <g id="svg_7"/>
  <g id="svg_8"/>
  <g id="svg_9"/>
  <g id="svg_10"/>
  <g id="svg_11"/>
  <g id="svg_12"/>
  <g id="svg_13"/>
  <g id="svg_14"/>
  <g id="svg_15"/>
  <g id="svg_16"/>
  <g id="svg_17"/>
  <g id="svg_18"/>
 </g>
</svg>