<svg width="90" height="73" xmlns="http://www.w3.org/2000/svg">

 <g>
  <title>background</title>
  <rect fill="none" id="canvas_background" height="75" width="92" y="-1" x="-1"/>
 </g>
 <g>
  <title>Layer 1</title>
  <g stroke="null" transform="rotate(0.0555279441177845 44.882560729991454,36.38911056518461) " id="svg_1">
   <circle stroke="null" id="svg_2" r="2.150564" cy="37.324748" cx="58.196969" fill="#1197a3"/>
   <path stroke="null" id="svg_3" d="m7.887033,1.639902c3.403116,0 6.26884,2.267221 7.145014,5.358166l3.339218,0c1.109007,0 2.007936,0.889664 2.007936,1.987061c0,1.097937 -0.898929,1.987422 -2.007936,1.987422l-3.339218,0c-0.876174,3.090944 -3.741898,5.358166 -7.145014,5.358166c-4.099067,0 -7.422265,-3.288407 -7.422265,-7.345587c0,-4.056459 3.323199,-7.345227 7.422265,-7.345227z" fill="#1197a3"/>
   <path stroke="null" id="svg_4" d="m7.778535,18.718109c1.933117,0 3.65033,0.912366 4.738038,2.324875c0.579444,0.6686 2.610499,2.829522 5.276704,3.631806c2.909596,0.875431 5.869255,-0.63653 5.884182,-0.644277c1.263562,-0.678148 2.841512,-0.214038 3.526541,1.0356c0.684482,1.249998 0.156921,2.714395 -1.046748,3.490014c-2.528398,1.628529 -7.612136,1.725639 -9.8773,1.044428c-0.912218,-0.274394 -1.763999,-0.642836 -2.547148,-1.059562l0,12.563042c0,1.892834 -0.902388,3.575594 -2.303393,4.653713l0,23.045877c0,1.995529 -1.634566,3.613248 -3.651058,3.613248c-2.016493,0 -3.65124,-1.617719 -3.65124,-3.613248l0,-23.045697c-1.401004,-1.078119 -2.303211,-2.761239 -2.303211,-4.653713l0,-16.493024c0.000182,-3.254716 2.665841,-5.893081 5.954633,-5.893081z" fill="#1197a3"/>
   <path stroke="null" id="svg_5" d="m25.045332,21.945259c-2.047622,0 -2.785443,1.123882 -4.746412,1.123882c-1.108279,0 -2.397691,-0.393485 -2.397691,-0.981009l0,-4.17591c0,-1.456109 1.197116,-2.640887 2.668389,-2.640887l7.660378,0l0,3.447135c0,0.249531 0.204252,0.451498 0.456382,0.451498l2.186885,0c0.25213,0 0.456564,-0.201967 0.456564,-0.451498l0,-3.447135l7.660196,0c1.471273,0 2.668389,1.184778 2.668389,2.640887l0,18.230735c0,1.456109 -1.197116,2.640887 -2.668389,2.640887l-18.420405,0c-1.471273,0 -2.668389,-1.184778 -2.668389,-2.640887l0,-3.631806c0,-0.130981 0.057344,-0.255116 0.156921,-0.341056c0.099578,-0.085579 0.231377,-0.116748 0.36263,-0.106299c8.669079,0.688958 12.639805,-3.881337 10.649527,-7.74754c-0.763125,-1.482414 -2.343806,-2.370997 -4.024975,-2.370997z" fill="#1197a3"/>
   <path stroke="null" id="svg_6" d="m42.682552,62.148529l3.696933,0l0,-59.077288c0,-1.496647 1.226061,-2.709891 2.738476,-2.709891l31.921821,0c1.512233,0 2.738112,1.213244 2.738112,2.709891l0,59.077108l3.697115,0c1.008155,0.00018 1.825347,0.80877 1.825347,1.806714l0,6.39845c0,0.997945 -0.817192,1.806534 -1.825347,1.806534l-44.792457,0c-1.008155,0 -1.825529,-0.808589 -1.825529,-1.806534l0,-6.39845c0,-0.997945 0.817374,-1.806534 1.825529,-1.806534zm35.618754,-56.367036l-26.445233,0l0,56.366135l26.445233,0l0,-56.366135z" fill="#1197a3"/>
  </g>
  <g id="svg_7"/>
  <g id="svg_8"/>
  <g id="svg_9"/>
  <g id="svg_10"/>
  <g id="svg_11"/>
  <g id="svg_12"/>
  <g id="svg_13"/>
  <g id="svg_14"/>
  <g id="svg_15"/>
  <g id="svg_16"/>
  <g id="svg_17"/>
  <g id="svg_18"/>
  <g id="svg_19"/>
  <g id="svg_20"/>
  <g id="svg_21"/>
 </g>
</svg>