<svg width="170" height="130" xmlns="http://www.w3.org/2000/svg">

 <g>
  <title>background</title>
  <rect fill="none" id="canvas_background" height="132" width="172" y="-1" x="-1"/>
 </g>
 <g>
  <title>Layer 1</title>
  <path stroke="#88c7dc" transform="rotate(0.3358685076236725 98.76094818115337,50.124111175536484) " fill="#88c7dc" id="svg_1" fill-rule="evenodd" d="m68.022817,1.59354c-3.028892,-0.618869 -6.257473,2.154862 -2.94127,4.149306c3.314675,7.962894 -3.775702,9.154872 -8.454591,11.983032c-1.27254,3.708676 -8.685104,8.970346 -2.32287,8.167509c6.45703,1.821674 9.553349,4.517763 11.63594,11.30222c4.041091,0.989595 0.46945,6.472325 -1.098692,5.814356c-3.050482,-4.013516 -0.846057,-0.77434 1.167381,-0.845695c-5.199969,-1.200461 -8.997327,-13.058937 -8.555565,-12.945841c-0.362258,2.882624 3.097514,8.939096 -0.460482,3.803022c-5.478179,-7.170771 -11.556224,-13.858054 -16.448819,-21.534486c0.701372,-5.818374 -8.806007,3.916565 -2.421253,2.650999c3.606304,4.538076 7.705256,9.554431 11.006845,13.796298c-4.617242,6.942569 -8.16429,16.092456 -4.993569,24.660268c2.277365,7.643693 3.694325,16.156445 8.267921,22.527058c5.889582,1.126353 10.181115,9.209189 16.788942,7.410878c-8.453262,1.419586 -3.695919,-11.465168 -1.399953,-16.583534c3.606902,-7.903369 8.513714,-15.035152 14.115121,-21.290436c-4.71217,3.297733 -8.861144,10.927215 -12.32283,16.617016c-3.789187,5.614577 -5.278423,15.112534 -6.305835,19.749494c-5.083051,-3.247212 0.007261,-12.948073 1.914988,-18.197392c3.770919,-7.925691 8.656539,-15.195124 14.305776,-21.55904c-4.165449,2.816775 -7.867346,9.602794 -11.133727,14.557467c-4.049461,7.068017 -7.994228,15.038128 -7.466771,23.71978c-5.950299,-4.030927 -1.654913,-14.327554 0.436693,-20.23834c2.06253,-3.719241 5.527669,-11.56264 8.002864,-12.03958c4.261773,2.766626 0.700176,-6.085713 5.108693,-6.818535c5.673683,-6.794204 -3.858075,4.78979 -2.986775,0.978955c-0.196953,-3.803841 -1.895457,-11.098348 2.88414,-5.405422c6.242128,5.459887 12.868887,13.01727 12.004629,22.634202c-0.336948,4.898497 1.455888,16.637106 -0.241594,16.983092c-1.950462,-3.479432 -6.508181,-7.088627 -0.382924,-5.049987c2.41182,-1.04659 -6.19742,0.076749 -5.744764,-3.802278c-3.079113,-3.87088 -6.850962,-7.813338 -1.333921,-11.481537c1.984474,-5.42261 4.709845,4.063888 7.436213,1.326355c-4.837923,-0.044212 -5.823484,-4.991132 -2.554446,-7.260207c-7.106055,7.013775 -13.678009,15.576081 -16.030972,26.217578c-1.035118,2.559704 0.325535,10.215153 0.089402,2.976598c-0.015664,-3.700789 3.400105,-14.237523 2.365518,-5.002144c-0.041061,7.843845 -0.606283,15.899746 1.848424,23.398348c1.034055,6.156548 2.342467,-5.473057 2.136001,-7.494882c0.496467,-4.175646 -1.853805,-14.122938 0.342156,-14.483806c-1.425462,2.491846 1.978562,9.219605 0.201556,2.799885c0.292406,-5.224393 6.535219,5.033022 10.521903,2.89691c-0.728342,0.405652 -12.807107,-0.389476 -10.393028,1.058123c6.401627,-2.006125 13.03297,-0.283701 15.951256,6.856928c1.256331,3.252643 10.383728,11.163825 5.596558,2.813055c-1.597251,-6.132663 -8.756184,-10.565604 -8.884395,-16.195136c-0.600696,-8.018698 0.197218,-16.246476 -1.214613,-24.138684c-2.860292,-7.763487 -8.738913,-13.945109 -15.156084,-18.035932c-0.748869,-3.171913 -1.146521,-8.721087 3.183741,-4.383163c7.721864,5.929908 14.285847,14.82384 16.511928,25.143161c0.752058,8.546234 1.409718,17.482354 -0.770393,25.820252c1.162531,0.649866 2.166626,-9.991192 1.893664,-13.566384c0.064119,-8.100544 -0.374348,-16.668356 -4.930593,-23.396116c-4.139939,-6.779025 -9.265705,-13.71966 -16.428226,-16.448115c-0.565116,-7.438408 -1.162664,-14.873691 -1.766649,-22.308305c1.5835,-0.7887 1.025419,-2.522798 -0.573885,-2.306427l0.001236,-0.000744zm-1.091517,0.63782c4.697556,0.478071 -5.522289,3.94283 -1.118023,0.07329l1.118023,-0.07329zm1.055313,2.677339c1.077567,14.223386 2.448623,27.564321 3.083232,41.820445c-3.826986,1.024715 -1.856595,-8.344595 -3.023179,-11.404156c-0.395327,-3.928916 -1.429714,-15.337239 -1.312797,-15.111046l2.762971,26.31133c0.937067,-1.435285 0.015319,-4.841874 0.106707,-7.019356c-1.27812,-11.297011 -2.237108,-23.030784 -3.713988,-34.055471c-0.248529,-0.926574 1.546831,0.456322 2.097073,-0.541539l-0.00002,-0.000208zm-28.419568,5.62611c0.976128,2.806582 -5.832319,3.982489 -1.326149,0.194474c0.262161,-0.152115 1.0494,-0.137137 1.326149,-0.194474zm33.49684,-0.307861c-2.881416,-0.582723 -5.495849,1.863936 -1.068997,0.529352c4.63923,4.046924 10.73913,6.721138 15.492886,11.078259c8.121775,8.498615 15.691513,18.861835 18.161393,31.265258c0.086971,6.431476 2.958011,14.356572 -0.95487,19.593242c-1.067801,2.401294 -5.696668,7.267796 -3.195101,2.001066c1.340897,-7.464376 1.01386,-15.361793 -0.540411,-22.744322c-4.387459,-11.788089 -10.990237,-22.942241 -19.943055,-30.978053c-3.243395,-1.338781 -9.876864,-5.81763 -10.978944,-5.942631c4.283097,4.47989 10.61557,4.510099 14.380178,9.814107c7.114026,8.347571 13.434874,18.129683 16.570387,29.201989c0.843665,7.706938 1.997162,16.194392 -1.056708,23.440759c-7.603618,5.838835 -2.52535,-8.62808 -3.405751,-13.423525c0.556573,-10.971115 -3.842464,-21.370794 -10.430229,-29.26449c-4.299439,-5.01829 -10.003746,-12.115474 -15.77588,-12.9384c9.801134,4.546483 17.139695,14.253148 22.360456,24.329907c4.943282,9.955477 3.116978,21.648327 2.617489,32.437892c0.35974,2.118999 -9.520798,2.315207 -3.022315,2.153225c5.578489,0.405377 8.933554,-4.782945 13.493997,-4.361362c10.222967,-0.673423 20.512364,-1.814605 30.761238,-1.146517c5.160974,-0.699718 11.813974,1.823832 15.856925,-2.651222c2.704247,-2.211857 11.07859,-2.44683 8.859816,-8.270933c-6.452978,-6.605586 -16.287393,0.628497 -22.713201,-6.359898c0.941252,-5.697018 9.978503,-2.482619 14.378849,-2.460967c2.849596,0.474284 11.961449,1.885811 4.323553,-0.256647c-2.952962,-0.586659 -7.015045,-0.983345 -1.871542,-0.665328c4.531347,-0.604568 -6.868898,-1.154553 -8.430011,-1.135728c-5.444432,0.617999 -15.03186,-1.482458 -16.907853,5.857883c4.581236,4.652958 11.875754,2.23217 17.575478,2.701446c3.813036,0.026563 14.188859,-1.289971 11.827924,5.378116c-9.649673,4.535918 -19.64744,4.726024 -29.914251,6.170089c-8.182226,1.005146 -16.806879,0.506033 -25.014348,0.47665c3.689409,1.722937 13.458125,-0.062672 14.583455,0.583526c-4.694301,-0.041079 -13.234254,1.96922 -15.258387,0.309751c5.026519,-6.439363 6.922043,-14.74869 9.040506,-22.7659c-1.257992,-9.651902 -5.415535,-18.606623 -8.641924,-27.614173c-1.568952,-6.802017 -6.999766,-11.222606 -13.242226,-11.119182c-5.587988,0.315056 -10.852726,-2.774587 -16.454133,-3.080692l-1.462331,-0.142651l-0.002059,0.000104zm-0.022507,0.504143c4.599637,1.520405 13.213661,-0.542626 13.406309,6.953953c0.758369,6.456774 -0.697519,-5.608699 0.097473,-4.071255c3.826986,0.447215 12.530093,0.750009 12.159411,3.836802c-2.946585,-0.131877 -12.862244,8.877339 -5.850654,3.580028c4.494678,-3.62802 9.268362,-5.019108 10.483374,2.59393c2.055289,6.45045 7.395027,16.300792 6.534754,21.13716c-3.31906,-0.334245 -6.316131,-3.655922 -8.54095,-5.118365c3.244325,5.838166 12.240456,3.749599 11.10649,12.376638c-1.44114,4.765385 -3.69273,15.250928 -5.423772,16.082039c0.011253,-7.03818 -0.197192,-14.338715 -2.419327,-20.997277c0.865189,3.21358 11.960785,6.463471 4.650722,3.15852c-5.616155,-1.772492 -6.078311,-8.250844 -9.384616,-13.012062c-5.338476,-4.81546 4.753424,-4.672601 5.319078,-8.219593c-3.965427,3.666562 -8.605388,6.288618 -10.975622,-0.276975c-4.215604,-5.721274 -9.352065,-10.725576 -15.504844,-13.494955c-1.777477,-1.429705 -4.582432,-4.011135 -5.657607,-4.528626l-0.000219,0.000037zm-32.801314,1.63127c7.984264,11.877376 17.643901,22.170655 25.840742,33.865736c-0.039008,2.300549 -3.207988,-2.46253 -4.520851,-3.560683l-15.749307,-19.672857l19.433535,23.669185c0.022453,-1.762 -2.446896,-3.784644 -3.508585,-5.603937c-7.538516,-9.179426 -15.270345,-18.25022 -22.808861,-27.429647c-1.490697,0.924788 1.164258,-0.920472 1.314125,-1.267575l-0.000797,-0.000223zm25.44216,0.813849c-0.384605,4.710697 3.698775,15.168338 -3.157501,10.401167c-2.525283,0.183641 -9.500204,-6.577981 -4.412437,-1.306787c4.485178,2.152258 10.60627,2.269819 9.148788,9.545502c0.154736,2.93322 1.812951,9.905626 -1.433501,4.410916c-2.657878,-4.419696 -2.92546,-6.756108 1.35126,-5.115464c-4.408916,-1.936631 -12.173362,-4.822156 -14.131728,-6.936616c2.540762,-6.508486 7.128641,-7.770927 12.635717,-10.997901l-0.000598,-0.000818zm29.94348,1.802328c-2.249,-0.297318 -9.257734,4.803778 -7.775673,4.819701c2.009651,-2.460744 5.902602,-3.305918 7.775673,-4.819701zm-34.432844,0.983048c-0.321191,2.867817 8.767478,5.486822 2.069571,2.026215c-0.767603,-0.559917 -1.531685,-1.178809 -2.069571,-2.026215zm40.543107,4.978408c-2.488082,-0.136177 -9.852285,4.333832 -8.608045,4.638077c2.38186,-2.364165 6.430458,-3.135603 8.608045,-4.638077zm1.642889,4.209575c-3.346695,0.661377 -11.924248,8.244147 -4.186241,2.779051c0.801615,-1.122707 4.298708,-1.520926 4.186241,-2.779051zm-53.92218,3.150856c3.219215,3.51284 1.252744,10.24938 5.437324,14.064902c1.091783,2.527783 10.571726,10.906382 4.563632,4.596484c-4.103602,-3.060602 -8.887052,-12.495687 -7.541173,-15.602123c2.407768,2.382767 3.440162,5.135404 5.019942,8.115425c2.580819,4.21017 10.468095,6.402235 4.090515,11.456239c-3.438236,5.052442 -4.195077,12.121426 -10.404986,13.889305c-5.538298,2.647056 5.542351,-0.951202 5.721181,-3.814183c-2.758055,3.776682 0.145071,13.602843 -3.342044,13.788113c-4.25978,-4.639193 -5.253113,-12.137051 -7.362476,-18.27031c-2.171608,-5.162414 -3.072005,-16.146028 -0.881066,-17.732357c-0.369904,8.717367 5.736792,15.090956 11.405427,19.971223c-3.182014,-4.563448 -10.140593,-9.12511 -10.71588,-16.489038c-1.943619,-3.47028 2.046719,-11.995681 2.653228,-10.526169c-1.388129,8.381798 2.841425,16.46002 8.929568,21.050849c5.219499,4.069246 -3.757101,-3.935836 -4.648995,-5.504159c-4.045741,-4.695518 -4.738942,-12.738249 -3.454445,-18.056766l0.529875,-0.937214l0.000372,-0.000223zm49.590257,5.192622c-0.338715,3.464328 10.769688,7.469584 9.033199,5.970459c-3.395787,-0.95894 -6.764603,-2.929797 -9.033199,-5.970459zm-26.44393,1.348603c-3.161952,2.782325 0.104575,2.184625 0,0zm-17.014141,1.12174l6.718101,8.381054c-2.589588,-2.400029 -5.393015,-4.786814 -6.718101,-8.381054zm12.524114,4.146553c2.791669,6.340255 -2.762041,9.773928 -5.169543,14.997949c-3.748133,6.538025 -5.967173,14.380382 -5.194056,22.195208c-5.990689,-4.368356 -1.311335,-15.164618 1.023957,-21.325406c2.453007,-3.667232 3.77165,-9.812618 7.674034,-8.520192c0.012562,-3.081138 -1.171964,-4.661515 1.665409,-7.347857l0.000199,0.000298zm72.940525,14.33053c-6.831033,0.432721 -2.254181,7.288704 2.183034,7.09577c-3.493306,0.389335 -16.598287,0.362073 -10.268804,-5.724697c2.623467,-1.464527 5.225744,-1.259911 8.085902,-1.371073l-0.000133,0zm-62.30569,1.323379c-1.142004,4.352508 12.33213,7.078806 3.758364,4.083531c-1.510892,-1.016456 -2.755996,-2.472649 -3.758364,-4.083531zm-25.25084,0.731006c-1.936644,1.580451 -11.4785,1.209092 -4.332255,1.638487c0.769662,-0.138253 5.091089,-0.226163 4.332255,-1.638487zm22.403636,2.848397c1.081752,3.219384 7.166506,7.274939 10.228945,6.881556c-3.886308,-1.110058 -7.557117,-3.52281 -10.228945,-6.881556zm-1.035251,1.86349c6.891485,9.983751 13.729161,18.928056 19.815509,29.55244c1.620768,3.303983 3.49138,6.176265 0.038928,1.991393c-0.355389,-1.886407 -2.674951,-4.512927 -3.788722,-6.517564c-5.511195,-7.991912 -11.409413,-15.658671 -16.921139,-23.650583c-0.114725,1.766688 2.642732,4.256822 3.568904,6.172768c5.297887,7.688337 10.498653,15.051521 15.797137,22.739858c-7.058889,-9.314845 -13.432881,-18.994277 -19.951027,-28.861956c0.471543,-0.770322 0.882992,-0.725403 1.440343,-1.426059l0.000066,-0.000298zm-1.710382,1.879785c1.929935,3.471396 8.17359,11.15192 7.272795,11.762047c-4.192685,-3.161645 -8.800693,-5.432357 -7.272795,-11.762047zm-0.700043,1.606046c-0.087356,10.087175 1.186247,19.791162 0.425214,29.841134c-0.948493,6.779174 -2.859827,-8.8885 -2.340939,-12.497175c0.002239,-3.103386 -0.211189,-14.160885 0.150618,-12.899709c0.060292,7.158494 0.217433,15.510604 0.277732,22.668428c1.062022,-1.330522 0.286169,-5.944045 0.584115,-8.101288c-0.047617,-5.588758 0.001601,-11.719636 -0.046016,-17.308989c0.444213,-0.904624 0.395194,-0.880665 0.94929,-1.703294l-0.000013,0.000893zm88.843951,0.826498c0.223306,1.214524 0.053941,0.911767 0,0zm-1.012731,2.53329c-4.300169,2.026959 -8.224742,4.282641 -12.358038,6.288097c-6.495892,0.311961 -13.00042,0.044309 -19.497972,-0.061943c10.631513,-1.384541 21.843628,-1.660883 31.85601,-6.226117l0,-0.000037zm-87.083546,0.894877c2.311444,4.541945 12.144797,7.80813 10.148565,11.105045c-4.372844,-1.665868 -11.608039,-4.669253 -10.148565,-11.105045z"/>
  <text stroke="#88c7dc" transform="matrix(15.681536674499512,0,0,1,-2921.855197235942,0) " xml:space="preserve" text-anchor="start" font-family="Arvo, sans-serif" font-size="24" id="svg_3" y="181.135396" x="185.680796" stroke-width="0" fill="#88c7dc"/>
  <text stroke="#88c7dc" transform="rotate(-0.4635428488254547 110.00785064697656,111.63739013671899) matrix(0.9003132001198236,0,0,0.9054844975471495,5.782533184057823,13.738951798501136) " font-style="italic" font-weight="bold" xml:space="preserve" text-anchor="start" font-family="'Courier New', Courier, monospace" font-size="35" id="svg_5" y="117.38148" x="52.391613" fill-opacity="null" stroke-opacity="null" stroke-width="0" fill="#88c7dc">Studio</text>
  <text stroke="#88c7dc" transform="rotate(0.4480713903903961 44.629467010495325,108.55194091796832) matrix(1.0740816161314786,0,0,1.0983104100637386,-12.604737591613683,-27.93675349295114) " font-style="italic" font-weight="bold" xml:space="preserve" text-anchor="start" font-family="'Courier New', Courier, monospace" font-size="24" id="svg_6" y="130.638458" x="47.104836" fill-opacity="null" stroke-opacity="null" stroke-width="0" fill="#88c7dc">_</text>
  <text stroke="#88c7dc" transform="rotate(0.26723796129226685 25.3481178283737,112.23218536376892) matrix(0.8818893432617186,0,0,0.9326428174972534,0.8143053491803931,9.554740045472949) " font-style="italic" font-weight="bold" xml:space="preserve" text-anchor="start" font-family="'Courier New', Courier, monospace" font-size="29" id="svg_7" y="117.709208" x="8.914097" fill-opacity="null" stroke-opacity="null" stroke-width="0" fill="#88c7dc">MV</text>
 </g>
</svg>