<svg width="200" height="200" xmlns="http://www.w3.org/2000/svg">

 <g>
  <title>background</title>
  <rect fill="none" id="canvas_background" height="202" width="202" y="-1" x="-1"/>
 </g>
 <g>
  <title>Layer 1</title>
  <path stroke="#ffffff" fill="#ffffff" id="svg_1" fill-rule="evenodd" d="m65.949363,11.8089c-4.263803,-0.83175 -8.80871,2.8961 -4.140457,5.5766c4.666103,10.702 -5.315095,12.304 -11.901615,16.105c-1.791368,4.9844 -12.226111,12.056 -3.269928,10.977c9.089628,2.4483 13.448348,6.0718 16.380034,15.19c5.688686,1.33 0.66085,8.6987 -1.54664,7.8144c-4.294195,-5.3941 -1.191003,-1.0407 1.643334,-1.1366c-7.32005,-1.6134 -12.66563,-17.551 -12.043758,-17.399c-0.509954,3.8742 4.360403,12.014 -0.648225,5.1112c-7.711689,-9.6374 -16.267817,-18.625 -23.155174,-28.942c0.987328,-7.8198 -12.396308,5.2638 -3.408424,3.5629c5.076632,6.0991 10.84677,12.841 15.49445,18.542c-6.499739,9.3307 -11.492956,21.628 -7.0295,33.143c3.205871,10.273 5.200539,21.714 11.638839,30.276c8.290826,1.5138 14.332062,12.377 23.633969,9.9601c-11.899745,1.9079 -5.202784,-15.409 -1.970729,-22.288c5.077474,-10.622 11.984843,-20.207 19.870003,-28.614c-6.633371,4.4321 -12.473925,14.686 -17.346976,22.333c-5.334078,7.5459 -7.430491,20.311 -8.876789,26.543c-7.155464,-4.3642 0.010221,-17.402 2.695748,-24.457c5.308362,-10.652 12.1859,-20.422 20.13839,-28.975c-5.863745,3.7857 -11.074945,12.906 -15.673063,19.565c-5.700469,9.4993 -11.253559,20.211 -10.511052,31.879c-8.376298,-5.4175 -2.329638,-19.256 0.614738,-27.2c2.903444,-4.9986 7.781358,-15.54 11.265715,-16.181c5.999342,3.7183 0.985645,-8.1791 7.191561,-9.164c7.986903,-9.1313 -5.431053,6.4374 -4.204514,1.3157c-0.277252,-5.1123 -2.668255,-14.916 4.060034,-7.2648c8.787108,7.338 18.115667,17.495 16.899041,30.42c-0.474325,6.5835 2.049468,22.36 -0.340094,22.825c-2.745685,-4.6763 -9.161635,-9.527 -0.539047,-6.7871c3.395145,-1.4066 -8.724173,0.10315 -8.086964,-5.1102c-4.3345,-5.2024 -9.644171,-10.501 -1.877775,-15.431c2.793565,-7.2879 6.630098,5.4618 10.468035,1.7826c-6.810395,-0.05942 -8.197779,-6.708 -3.595921,-9.7576c-10.003267,9.4264 -19.254676,20.934 -22.566966,35.236c-1.457146,3.4402 0.458259,13.729 0.125852,4.0005c-0.022051,-4.9738 4.786363,-19.135 3.329965,-6.7228c-0.057801,10.542 -0.853471,21.369 2.602046,31.447c1.45565,8.2743 3.297515,-7.3557 3.006872,-10.073c0.698882,-5.612 -2.609621,-18.981 0.481657,-19.466c-2.006638,3.349 2.785242,12.391 0.283733,3.763c0.411624,-7.0215 9.199695,6.7643 14.811793,3.8934c-1.025295,0.54519 -18.028698,-0.52345 -14.630374,1.4221c9.011637,-2.6962 18.346648,-0.38129 22.454749,9.2156c1.76855,4.3715 14.617282,15.004 7.878333,3.7807c-2.248467,-8.2422 -12.326172,-14.2 -12.506655,-21.766c-0.845607,-10.777 0.277626,-21.835 -1.709823,-32.442c-4.026462,-10.434 -12.301858,-18.742 -21.335378,-24.24c-1.054191,-4.263 -1.61397,-11.721 4.481785,-5.8909c10.870148,7.9697 20.110335,19.923 23.244013,33.792c1.05868,11.486 1.984475,23.496 -1.08449,34.702c1.636507,0.87341 3.049982,-13.428 2.66573,-18.233c0.09026,-10.887 -0.526974,-22.402 -6.940848,-31.444c-5.827836,-9.1109 -13.04343,-18.439 -23.126184,-22.106c-0.79552,-9.9971 -1.636694,-19.99 -2.48693,-29.982c2.22911,-1.06 1.443493,-3.3906 -0.807864,-3.0998l0.001739,-0.001zm-1.53654,0.85722c6.612798,0.64252 -7.773783,5.2991 -1.573852,0.0985l1.573852,-0.0985zm1.485574,3.5983c1.516902,19.116 3.446952,37.046 4.340298,56.205999c-5.387288,1.3772 -2.613549,-11.215 -4.25576,-15.327c-0.556506,-5.2804 -2.012623,-20.613 -1.848037,-20.309l3.889463,35.362c1.319118,-1.929 0.021564,-6.5074 0.150213,-9.4339c-1.799223,-15.183 -3.149201,-30.953 -5.22822,-45.769999c-0.349857,-1.2453 2.17749,0.61329 2.952072,-0.72782l-0.000028,-0.00028zm-40.006522,7.5614c1.374105,3.772 -8.210216,5.3524 -1.866834,0.26137c0.369046,-0.20444 1.477252,-0.18431 1.866834,-0.26137zm47.15385,-0.41376c-4.0562,-0.78317 -7.736564,2.5051 -1.504838,0.71144c6.530692,5.439 15.117586,9.0331 21.809497,14.889c11.433107,11.422 22.089106,25.35 25.565983,42.019999c0.122429,8.6438 4.164022,19.295 -1.34418,26.333c-1.503155,3.2273 -8.019259,9.7678 -4.497776,2.6894c1.887594,-10.032 1.427221,-20.646 -0.760742,-30.568c-6.176272,-15.843 -15.471071,-30.834 -28.074047,-41.634c-4.565762,-1.7993 -13.903765,-7.8188 -15.455174,-7.9868c6.02936,6.0209 14.943648,6.0615 20.243126,13.19c10.014489,11.219 18.912412,24.366 23.326306,39.247c1.187637,10.358 2.811426,21.765 -1.487538,31.504c-10.703692,7.8473 -3.554961,-11.596 -4.794311,-18.041c0.783494,-14.745 -5.409077,-28.722 -14.682742,-39.331c-6.052365,-6.7445 -14.082378,-16.283 -22.20787,-17.389c13.797158,6.1104 24.127727,19.156 31.477047,32.699c6.958709,13.38 4.387803,29.095 3.684666,43.595999c0.50641,2.8479 -13.402526,3.1116 -4.254545,2.8939c7.852897,0.54482 12.575856,-6.4282 18.99564,-5.8616c14.390977,-0.90507 28.875468,-2.4388 43.302915,-1.5409c7.265157,-0.94041 16.630654,2.4512 22.321958,-3.5632c3.806796,-2.9727 15.595446,-3.2885 12.472055,-11.116c-9.083924,-8.8778 -22.927933,0.84469 -31.97361,-8.5476c1.32501,-7.6567 14.046842,-3.3366 20.241256,-3.3075c4.011406,0.63743 16.838256,2.5345 6.08631,-0.34493c-4.156915,-0.78846 -9.875152,-1.3216 -2.63459,-0.89419c6.378824,-0.81253 -9.66942,-1.5517 -11.867015,-1.5264c-7.664184,0.83058 -21.160505,-1.9924 -23.80136,7.8729c6.449054,6.2535 16.717622,3 24.741183,3.6307c5.36765,0.0357 19.973804,-1.7337 16.650292,7.2281c-13.583945,6.0962 -27.657906,6.3517 -42.110603,8.2925c-11.518205,1.3509 -23.659218,0.6801 -35.212959,0.64061c5.193619,2.3156 18.945142,-0.08423 20.529281,0.78425c-6.608216,-0.05521 -18.629998,2.6466 -21.479391,0.4163c7.075883,-8.6544 9.744231,-19.822 12.726415,-30.597c-1.770888,-12.972 -7.623505,-25.007 -12.165327,-37.113c-2.20863,-9.1418 -9.853644,-15.083 -18.641219,-14.944c-7.866269,0.42343 -15.277496,-3.729 -23.162655,-4.1404l-2.058539,-0.19172l-0.002899,0.00014zm-0.031683,0.67756c6.474958,2.0434 18.601008,-0.72928 18.872201,9.346c1.067564,8.6778 -0.981904,-7.538 0.137214,-5.4717c5.387288,0.60105 17.638742,1.008 17.11693,5.1566c-4.147938,-0.17724 -18.106315,11.931 -8.236026,4.8115c6.327204,-4.876 13.04717,-6.7456 14.757554,3.4862c2.893251,8.6693 10.410056,21.908 9.199041,28.408c-4.672275,-0.44922 -8.891284,-4.9135 -12.023184,-6.879c4.567071,7.8464 17.231018,5.0394 15.634722,16.634c-2.028708,6.4046 -5.198295,20.497 -7.635101,21.614c0.015841,-9.4592 -0.277589,-19.271 -3.405712,-28.22c1.217935,4.319 16.837321,8.6868 6.54687,4.245c-7.905919,-2.3822 -8.556501,-11.089 -13.210821,-17.488c-7.515028,-6.4719 6.691444,-6.2799 7.487722,-11.047c-5.582173,4.9278 -12.113894,8.4518 -15.450498,-0.37225c-5.934349,-7.6893 -13.164999,-14.415 -21.82633,-18.137c-2.502173,-1.9215 -6.450737,-5.3909 -7.964273,-6.0864l-0.000309,0.00005zm-46.174751,2.1924c11.239531,15.963 24.837503,29.797 36.376282,45.514999c-0.054912,3.0919 -4.515918,-3.3096 -6.364049,-4.7855l-22.170464,-26.44l27.356789,31.811c0.031608,-2.3681 -3.44452,-5.0865 -4.939072,-7.5316c-10.612048,-12.337 -21.496223,-24.528 -32.108271,-36.865c-2.09847,1.2429 1.638939,-1.2371 1.849908,-1.7036l-0.001122,-0.0003zm35.815193,1.0938c-0.541413,6.3311 5.206805,20.386 -4.444847,13.979c-3.554868,0.24681 -13.373537,-8.8407 -6.211433,-1.7563c6.313832,2.8926 14.930556,3.0506 12.878844,12.829c0.217824,3.9422 2.55211,13.313 -2.017954,5.9282c-3.741523,-5.94 -4.1182,-9.0801 1.902182,-6.8751c-6.206477,-2.6028 -17.136568,-6.4809 -19.893381,-9.3227c3.576657,-8.7473 10.035062,-10.444 17.78743,-14.781l-0.000842,-0.0011zm42.151749,2.4223c-3.16594,-0.39959 -13.032208,6.4562 -10.945895,6.4776c2.829007,-3.3072 8.309155,-4.4431 10.945895,-6.4776zm-48.471472,1.3212c-0.452144,3.8543 12.34207,7.3742 2.913357,2.7232c-1.080562,-0.75252 -2.156168,-1.5843 -2.913357,-2.7232zm57.072954,6.6909c-3.502499,-0.18302 -13.869165,5.8246 -12.117634,6.2335c3.352969,-3.1774 9.052223,-4.2142 12.117634,-6.2335zm2.312712,5.6576c-4.711177,0.88888 -16.785888,11.08 -5.893016,3.735c1.128442,-1.5089 6.051336,-2.0441 5.893016,-3.735zm-75.906814,4.2347c4.531722,4.7212 1.7635,13.775 7.654178,18.903c1.536914,3.3973 14.881929,14.658 6.424273,6.1776c-5.776683,-4.1134 -12.510396,-16.794 -10.615788,-20.969c3.38944,3.2024 4.842752,6.9019 7.066625,10.907c3.633046,5.6584 14.736046,8.6045 5.758261,15.397c-4.84004,6.7904 -5.905453,16.291 -14.647207,18.667c-7.79632,3.5576 7.802025,-1.2784 8.053766,-5.1262c-3.882543,5.0758 0.204217,18.282 -4.704631,18.531c-5.996536,-6.235 -7.394862,-16.312 -10.364234,-24.555c-3.056995,-6.9382 -4.324494,-21.7 -1.240285,-23.832c-0.520718,11.716 8.075742,20.282 16.055538,26.841c-4.479354,-6.1332 -14.275018,-12.264 -15.084856,-22.161c-2.736053,-4.664 2.881188,-16.122 3.734977,-14.147c-1.954083,11.265 3.999904,22.122 12.570245,28.292c7.347543,5.469 -5.288911,-5.2897 -6.544439,-7.3975c-5.695232,-6.3107 -6.671058,-17.12 -4.862858,-24.268l0.745911,-1.2596l0.000524,-0.0003zm69.808721,6.9788c-0.476813,4.656 15.160603,10.039 12.716128,8.0242c-4.780284,-1.2888 -9.522601,-3.9376 -12.716128,-8.0242zm-37.225395,1.8125c-4.451112,3.7394 0.147211,2.9361 0,0zm-23.950984,1.5076l9.457141,11.264c-3.64539,-3.2256 -7.591804,-6.4334 -9.457141,-11.264zm17.630326,5.5729c3.929862,8.5212 -3.888154,13.136 -7.27722,20.157c-5.276286,8.787 -8.400051,19.327 -7.311727,29.83c-8.433155,-5.871 -1.84598,-20.381 1.441436,-28.661c3.453124,-4.9287 5.30939,-13.188 10.802818,-11.451c0.017684,-4.141 -1.649786,-6.265 2.344413,-9.8754l0.000281,0.0004zm102.679136,19.26c-9.616116,0.58157 -3.173234,9.7959 3.07308,9.5366c-4.917564,0.52326 -23.365582,0.48662 -14.455502,-7.6939c3.693082,-1.9683 7.356334,-1.6933 11.382609,-1.8427l-0.000187,0zm-87.708368,1.7786c-1.607611,5.8497 17.360068,9.5138 5.290687,5.4882c-2.126898,-1.3661 -3.879644,-3.3232 -5.290687,-5.4882zm-35.545871,0.98246c-2.726234,2.1241 -16.158404,1.625 -6.098561,2.2021c1.083461,-0.18581 7.166779,-0.30396 6.098561,-2.2021zm31.537831,3.8282c1.522793,4.3268 10.088365,9.7774 14.399393,9.2487c-5.470797,-1.4919 -10.638232,-4.7346 -14.399393,-9.2487zm-1.457333,2.5045c9.701215,13.418 19.326682,25.439 27.894499,39.718c2.281572,4.4405 4.914852,8.3008 0.0548,2.6764c-0.500285,-2.5353 -3.765556,-6.0653 -5.333424,-8.7595c-7.758166,-10.741 -16.061149,-21.045 -23.820063,-31.786c-0.1615,2.3744 3.720202,5.7211 5.023984,8.2961c7.457891,10.333 14.779063,20.229 22.237795,30.562c-9.936872,-12.519 -18.909607,-25.528 -28.085269,-38.79c0.663795,-1.0353 1.242997,-0.97493 2.027586,-1.9166l0.000094,-0.0004zm-2.407723,2.5264c2.716789,4.6655 11.506048,14.988 10.237989,15.808c-5.902087,-4.2492 -12.388827,-7.301 -10.237989,-15.808zm-0.985458,2.1585c-0.122972,13.557 1.669892,26.599 0.598578,40.106c-1.335203,9.1111 -4.025808,-11.946 -3.295364,-16.796c0.003151,-4.1709 -0.297293,-19.032 0.212026,-17.337c0.084874,9.6209 0.306083,20.846 0.390966,30.466c1.495019,-1.7882 0.402843,-7.9887 0.822265,-10.888c-0.067031,-7.5112 0.002254,-15.751 -0.064778,-23.263c0.625323,-1.2158 0.556319,-1.1836 1.336325,-2.2892l-0.000019,0.0012zm125.066554,1.1108c0.31435,1.6323 0.075934,1.2254 0,0zm-1.425632,3.4047c-6.053393,2.7242 -11.578055,5.7558 -17.396539,8.4511c-9.144335,0.41927 -18.300826,0.05955 -27.447498,-0.08325c14.966092,-1.8608 30.749502,-2.2322 44.844037,-8.3678l0,-0.00005zm-122.588415,1.2027c3.253844,6.1043 17.096357,10.494 14.28624,14.925c-6.155698,-2.2389 -16.340758,-6.2754 -14.28624,-14.925z"/>
  <text stroke="#ffffff" transform="matrix(15.681536674499512,0,0,1,-2921.855197235942,0) " xml:space="preserve" text-anchor="start" font-family="Arvo, sans-serif" font-size="24" id="svg_3" y="181.135396" x="185.680796" stroke-width="0" fill="#ffffff"/>
  <text stroke="#ffffff" transform="rotate(-0.4635428488254547 131.05958557129676,159.67857360839665) matrix(1.0813957452774048,0,0,1,-5.209327697753906,0) " font-style="italic" font-weight="bold" xml:space="preserve" text-anchor="start" font-family="'Courier New', Courier, monospace" font-size="35" id="svg_5" y="169.019745" x="62.689848" fill-opacity="null" stroke-opacity="null" stroke-width="0" fill="#ffffff">Studio</text>
  <text stroke="#ffffff" transform="rotate(0.4480713903903961 54.46358108520131,156.03163146972665) matrix(1.2866070000935965,0,0,1.1867002248764038,-24.320994775278525,-28.31483913428222) " font-style="italic" font-weight="bold" xml:space="preserve" text-anchor="start" font-family="'Courier New', Courier, monospace" font-size="24" id="svg_6" y="161.686174" x="55.233185" fill-opacity="null" stroke-opacity="null" stroke-width="0" fill="#ffffff">_</text>
  <text stroke="#ffffff" transform="rotate(0.26723796129226685 29.065376281744747,158.75769042968773) matrix(1.4582295417785642,0,0,1.4461278915405273,-9.472463808953762,-72.20950944721699) " font-style="italic" font-weight="bold" xml:space="preserve" text-anchor="start" font-family="'Courier New', Courier, monospace" font-size="29" id="svg_7" y="167.48698" x="7.313447" fill-opacity="null" stroke-opacity="null" stroke-width="0" fill="#ffffff">MV</text>
 </g>
</svg>