<svg width="90" height="73" xmlns="http://www.w3.org/2000/svg">
 <!-- Created with Method Draw - http://github.com/duopixel/Method-Draw/ -->

 <g>
  <title>background</title>
 </g>
 <g>
  <title>Layer 1</title>
  <g fill="#9aa0ab" stroke="null" transform="rotate(0.14913487434387207 44.90740203857652,36.222225189208736) " id="svg_98">
   <g stroke="null" transform="matrix(0.1462177515231122,0,0,0.14290357170044277,-2.2839016553600455,-3.372180021367866) " id="svg_81">
    <path stroke="null" id="svg_82" d="m616.469805,141.464787l-281.14,-114.835c-9.642,-3.938 -20.449,-3.908 -30.068,0.085l-276.343,114.711c-7.37,3.06 -12.173,10.254 -12.173,18.234l0,41.11c0,10.904 8.839,19.742 19.742,19.742l14.807,0c2.726,0 4.936,2.209 4.936,4.936l0,261.582c0,24.532 19.887,44.42 44.42,44.42l12.901,0l0,-237.342l418.39,0l0,237.341l12.901,0c24.532,0 44.42,-19.887 44.42,-44.42l0,-261.581c0,-2.726 2.21,-4.936 4.936,-4.936l14.807,0c10.904,0 19.742,-8.839 19.742,-19.742l0,-41.029c-0.002,-8.02 -4.855,-15.243 -12.278,-18.276zm-402.304,79.047l-98.71,0l0,-44.42l98.709,0l0.001,44.42l0,0zm157.934,0l-98.709,0l0,-44.42l98.709,0l0,44.42zm157.937,0l-98.711,0l0,-44.42l98.71,0l0.001,44.42l0,0zm-290.192,212.262l-28.093,0l0,38.756l-13.124,0l0,-38.756l-28.266,0c-10.216,0 -18.497,8.281 -18.497,18.497l0,61.68c0,10.216 8.282,18.496 18.497,18.496l69.482,0c10.216,0 18.497,-8.28 18.497,-18.496l0,-61.68c0.001,-10.216 -8.281,-18.497 -18.496,-18.497zm117.678,0l-28.093,0l0,38.756l-13.124,0l0,-38.756l-28.265,0c-10.216,0 -18.497,8.281 -18.497,18.497l0,61.68c0,10.216 8.282,18.496 18.497,18.496l69.481,0c10.216,0 18.497,-8.28 18.497,-18.496l0,-61.68c0.002,-10.216 -8.28,-18.497 -18.496,-18.497zm119.865,0l-28.093,0l0,38.756l-13.124,0l0,-38.756l-28.265,0c-10.216,0 -18.497,8.281 -18.497,18.497l0,61.68c0,10.216 8.281,18.496 18.497,18.496l69.481,0c10.216,0 18.497,-8.28 18.497,-18.496l0,-61.68c0.002,-10.216 -8.281,-18.497 -18.496,-18.497zm-178.46,-111.305l-28.093,0l0,38.757l-13.124,0l0,-38.757l-28.265,0c-10.216,0 -18.497,8.282 -18.497,18.497l0,61.68c0,10.216 8.282,18.497 18.497,18.497l69.482,0c10.216,0 18.497,-8.281 18.497,-18.497l0,-61.68c0.001,-10.215 -8.282,-18.497 -18.497,-18.497zm120.55,0l-28.094,0l0,38.757l-13.123,0l0,-38.757l-28.265,0c-10.216,0 -18.497,8.282 -18.497,18.497l0,61.68c0,10.216 8.282,18.497 18.497,18.497l69.482,0c10.216,0 18.496,-8.281 18.496,-18.497l0,-61.68c0.001,-10.215 -8.28,-18.497 -18.496,-18.497z"/>
   </g>
   <g stroke="null" transform="matrix(0.1462177515231122,0,0,0.14290357170044277,-2.2839016553600455,-3.372180021367866) " id="svg_83"/>
   <g stroke="null" transform="matrix(0.1462177515231122,0,0,0.14290357170044277,-2.2839016553600455,-3.372180021367866) " id="svg_84"/>
   <g stroke="null" transform="matrix(0.1462177515231122,0,0,0.14290357170044277,-2.2839016553600455,-3.372180021367866) " id="svg_85"/>
   <g stroke="null" transform="matrix(0.1462177515231122,0,0,0.14290357170044277,-2.2839016553600455,-3.372180021367866) " id="svg_86"/>
   <g stroke="null" transform="matrix(0.1462177515231122,0,0,0.14290357170044277,-2.2839016553600455,-3.372180021367866) " id="svg_87"/>
   <g stroke="null" transform="matrix(0.1462177515231122,0,0,0.14290357170044277,-2.2839016553600455,-3.372180021367866) " id="svg_88"/>
   <g stroke="null" transform="matrix(0.1462177515231122,0,0,0.14290357170044277,-2.2839016553600455,-3.372180021367866) " id="svg_89"/>
   <g stroke="null" transform="matrix(0.1462177515231122,0,0,0.14290357170044277,-2.2839016553600455,-3.372180021367866) " id="svg_90"/>
   <g stroke="null" transform="matrix(0.1462177515231122,0,0,0.14290357170044277,-2.2839016553600455,-3.372180021367866) " id="svg_91"/>
   <g stroke="null" transform="matrix(0.1462177515231122,0,0,0.14290357170044277,-2.2839016553600455,-3.372180021367866) " id="svg_92"/>
   <g stroke="null" transform="matrix(0.1462177515231122,0,0,0.14290357170044277,-2.2839016553600455,-3.372180021367866) " id="svg_93"/>
   <g stroke="null" transform="matrix(0.1462177515231122,0,0,0.14290357170044277,-2.2839016553600455,-3.372180021367866) " id="svg_94"/>
   <g stroke="null" transform="matrix(0.1462177515231122,0,0,0.14290357170044277,-2.2839016553600455,-3.372180021367866) " id="svg_95"/>
   <g stroke="null" transform="matrix(0.1462177515231122,0,0,0.14290357170044277,-2.2839016553600455,-3.372180021367866) " id="svg_96"/>
   <g stroke="null" transform="matrix(0.1462177515231122,0,0,0.14290357170044277,-2.2839016553600455,-3.372180021367866) " id="svg_97"/>
  </g>
 </g>
</svg>