<svg width="90" height="73" xmlns="http://www.w3.org/2000/svg">
 <!-- Created with Method Draw - http://github.com/duopixel/Method-Draw/ -->

 <g>
  <title>background</title>
  <rect fill="none" id="canvas_background" height="75" width="92" y="-1" x="-1"/>
  <g display="none" overflow="visible" y="0" x="0" height="100%" width="100%" id="canvasGrid">
   <rect fill="url(#gridpattern)" stroke-width="0" y="0" x="0" height="100%" width="100%"/>
  </g>
 </g>
 <g>
  <title>Layer 1</title>
  <g fill="#9aa0ab" id="svg_28">
   <g stroke="null" transform="matrix(0.18288610526898746,0,0,0.14961366890906205,-3.187705729451679,0.3892183950309492) " id="svg_5">
    <g stroke="null" id="svg_6">
     <circle stroke="null" id="svg_7" r="45.303001" cy="42.519704" cx="63.307303"/>
     <path stroke="null" id="svg_8" d="m198.954303,176.680704c-3.127,-10.258 -13.46,-15.58 -24.234,-12.913c-2.269,0.562 -24.048,6.797 -44.012,-4.012c-17.35,-9.394 -28.576,-27.506 -32.559,-33.711c-8.06,-12.556 -19.313,-22.588 -34.841,-22.588c-21.072,0 -38.149,17.079 -38.149,38.147l0,119.885c0,13.415 6.922,25.21 17.39,32.012l0,170.472c0,11.468 9.294,20.761 20.759,20.761s20.76,-9.293 20.76,-20.761l0,-170.473c10.467,-6.802 17.39,-18.597 17.39,-32.011l0,-74.35c3.374,2.426 6.959,4.707 10.761,6.766c15.541,8.413 31.75,10.765 45.01,10.765c16.155,0 27.938,-3.489 28.812,-3.756c10.254,-3.126 16.037,-13.975 12.913,-24.233z"/>
    </g>
    <g stroke="null" id="svg_9">
     <circle stroke="null" id="svg_10" r="45.303001" cy="42.519704" cx="462.701303"/>
     <path stroke="null" id="svg_11" d="m327.054303,176.680704c3.127,-10.258 13.972,-16.04 24.235,-12.913c0.121,0.034 24.048,6.797 44.012,-4.012c17.35,-9.394 28.575,-27.506 32.559,-33.711c8.06,-12.556 19.313,-22.588 34.841,-22.588c21.072,0 38.149,17.079 38.149,38.147l0,119.885c0,13.415 -6.923,25.21 -17.39,32.012l0,170.472c0,11.468 -9.294,20.761 -20.76,20.761c-11.465,0 -20.76,-9.293 -20.76,-20.761l0,-170.473c-10.467,-6.802 -17.391,-18.597 -17.391,-32.011l0,-74.35c-3.374,2.426 -6.959,4.707 -10.76,6.766c-15.541,8.413 -31.75,10.765 -45.011,10.765c-16.155,0 -27.937,-3.489 -28.811,-3.756c-10.255,-3.125 -16.036,-13.975 -12.913,-24.233z"/>
    </g>
    <path stroke="null" id="svg_12" d="m267.753303,109.147704l-36.702,0c-0.604,0 -1.093,0.489 -1.093,1.093l0,20.428c0,1.584 -1.289,2.873 -2.874,2.873l-18.06,0c-1.584,0 -2.873,-1.289 -2.873,-2.873l0,-20.428c0,-0.604 -0.489,-1.093 -1.093,-1.093l-36.703,0c-8.138,0 -14.759,6.621 -14.759,14.759l0,24.693c0,0.51 0.352,0.951 0.849,1.065c1.915,0.438 4.248,0.652 7.134,0.652c5.222,0 11.063,-0.711 15.754,-1.279c1.041,-0.126 5.614,-0.53 6.797,-0.557c13.289,-0.294 24.919,9.337 29.322,23.779c5.553,18.239 -4.763,37.595 -22.995,43.148c-1.482,0.452 -15.007,4.414 -33.228,4.414c-0.713,0 -1.891,-0.022 -2.52,-0.035c-0.294,-0.006 -0.577,0.107 -0.786,0.313c-0.21,0.206 -0.327,0.487 -0.327,0.78l0,10.513c0,8.139 6.621,14.76 14.759,14.76l99.398,0c8.139,0 14.76,-6.621 14.76,-14.76l0,-107.486c0,-8.138 -6.621,-14.759 -14.76,-14.759z"/>
   </g>
   <g stroke="null" transform="matrix(0.18288610526898746,0,0,0.14961366890906205,-3.187705729451679,0.3892183950309492) " id="svg_13"/>
   <g stroke="null" transform="matrix(0.18288610526898746,0,0,0.14961366890906205,-3.187705729451679,0.3892183950309492) " id="svg_14"/>
   <g stroke="null" transform="matrix(0.18288610526898746,0,0,0.14961366890906205,-3.187705729451679,0.3892183950309492) " id="svg_15"/>
   <g stroke="null" transform="matrix(0.18288610526898746,0,0,0.14961366890906205,-3.187705729451679,0.3892183950309492) " id="svg_16"/>
   <g stroke="null" transform="matrix(0.18288610526898746,0,0,0.14961366890906205,-3.187705729451679,0.3892183950309492) " id="svg_17"/>
   <g stroke="null" transform="matrix(0.18288610526898746,0,0,0.14961366890906205,-3.187705729451679,0.3892183950309492) " id="svg_18"/>
   <g stroke="null" transform="matrix(0.18288610526898746,0,0,0.14961366890906205,-3.187705729451679,0.3892183950309492) " id="svg_19"/>
   <g stroke="null" transform="matrix(0.18288610526898746,0,0,0.14961366890906205,-3.187705729451679,0.3892183950309492) " id="svg_20"/>
   <g stroke="null" transform="matrix(0.18288610526898746,0,0,0.14961366890906205,-3.187705729451679,0.3892183950309492) " id="svg_21"/>
   <g stroke="null" transform="matrix(0.18288610526898746,0,0,0.14961366890906205,-3.187705729451679,0.3892183950309492) " id="svg_22"/>
   <g stroke="null" transform="matrix(0.18288610526898746,0,0,0.14961366890906205,-3.187705729451679,0.3892183950309492) " id="svg_23"/>
   <g stroke="null" transform="matrix(0.18288610526898746,0,0,0.14961366890906205,-3.187705729451679,0.3892183950309492) " id="svg_24"/>
   <g stroke="null" transform="matrix(0.18288610526898746,0,0,0.14961366890906205,-3.187705729451679,0.3892183950309492) " id="svg_25"/>
   <g stroke="null" transform="matrix(0.18288610526898746,0,0,0.14961366890906205,-3.187705729451679,0.3892183950309492) " id="svg_26"/>
   <g stroke="null" transform="matrix(0.18288610526898746,0,0,0.14961366890906205,-3.187705729451679,0.3892183950309492) " id="svg_27"/>
  </g>
 </g>
</svg>