<svg width="90" height="73" xmlns="http://www.w3.org/2000/svg">


 <g>
  <title>background</title>
  <rect x="-1" y="-1" width="92" height="75" id="canvas_background" fill="none"/>
 </g>
 <g>
  <title>Layer 1</title>
  <g stroke="null" id="svg_22" fill="#9aa0ab">
   <path stroke="null" d="m90.000602,37.544607c0,-0.020736 -0.000849,-0.041473 -0.001062,-0.062209c-0.024632,-1.38986 -0.927507,-2.497286 -2.065444,-2.497286l-0.54232,0l-8.37538,-20.01661c-0.353336,-0.845203 -1.058097,-1.371486 -1.836116,-1.371749l-14.299066,-0.003675l0.545505,-5.345252c0.155646,-2.136106 -0.378605,-4.153044 -1.504651,-5.679659c-1.123923,-1.523465 -2.693125,-2.362631 -4.418823,-2.362631l-44.379341,0c-1.115854,0 -2.063746,1.067266 -2.170129,2.443214l-0.444855,4.40398l25.285183,0c1.641823,0 2.937955,1.645258 2.895062,3.674795c-0.043105,2.029537 -1.408885,3.674795 -3.050708,3.674795l-8.433986,0c0.001486,0.00525 0.002973,0.010499 0.004459,0.015487l-24.76707,0c-1.161082,0 -2.127023,1.163335 -2.157388,2.598605c-0.030365,1.43527 0.8861,2.598605 2.047183,2.598605l32.788901,0c1.522063,0.289784 2.659151,1.916931 2.617319,3.886883c-0.045866,2.163404 -1.494671,3.917594 -3.241815,3.935706l-22.605435,0c-1.172761,0 -2.148257,1.175147 -2.179047,2.624854c-0.030789,1.449707 0.895019,2.624854 2.06778,2.624854l22.339159,0c1.544359,0.265898 2.704167,1.906169 2.662123,3.895283c-0.046078,2.174429 -1.509535,3.937281 -3.26857,3.937281l-25.628114,0l0,0.002887l-2.153354,0c-1.172761,0 -2.148257,1.175147 -2.179047,2.624854c-0.030789,1.449707 0.894806,2.624854 2.06778,2.624854l1.858411,0l-0.726844,9.401701c-0.155859,2.135844 0.378392,4.152781 1.504651,5.679396c1.12371,1.523728 2.693125,2.362631 4.418823,2.362631l1.603177,0c0.764004,5.400374 4.54368,9.480709 9.166988,9.480709c4.623308,0 8.57583,-4.080335 9.568101,-9.480447l20.006589,0c1.617616,0 3.149022,-0.76462 4.350025,-2.016413c1.09823,1.302977 2.554042,2.016413 4.143629,2.016413l0.329129,0c0.763792,5.400112 4.543468,9.480447 9.166988,9.480447c4.623308,0 8.57583,-4.080335 9.568101,-9.480447l1.320551,0c3.440142,0 6.491063,-3.457195 6.801081,-7.706571l1.294008,-17.719338c0.001699,-0.023886 0.000849,-0.04751 0.002123,-0.071659c0.002123,-0.036485 0.006158,-0.072184 0.007007,-0.108931c0.000425,-0.022049 -0.001274,-0.04331 -0.001274,-0.065359zm-66.444792,29.902597c-2.927125,0 -5.246318,-2.943511 -5.169662,-6.561872c0.076655,-3.618623 2.520492,-6.562397 5.447617,-6.562397c2.927125,0 5.246105,2.943774 5.16945,6.562397c-0.076655,3.618361 -2.520279,6.561872 -5.447405,6.561872zm47.564461,0c-2.927125,0 -5.246105,-2.943511 -5.169662,-6.561872c0.076655,-3.618623 2.520492,-6.562397 5.447617,-6.562397c2.927125,0 5.246318,2.943774 5.16945,6.562397c-0.076655,3.618361 -2.520279,6.561872 -5.447405,6.561872zm13.347777,-12.273029c-0.110418,1.513753 -1.236464,2.792582 -2.458913,2.792582l-1.42842,0c-0.945768,-5.106128 -4.61715,-8.89353 -9.071435,-8.89353c-4.454284,0 -8.285984,3.787402 -9.447916,8.89353l-0.437211,0c-0.539772,0 -1.021362,-0.250149 -1.356649,-0.704773c-0.33741,-0.45725 -0.496242,-1.079602 -0.447191,-1.752352l2.677412,-36.666845l6.149193,0.001575l-0.974647,13.347907c-0.156071,2.135844 0.377968,4.152781 1.504014,5.679396c1.12371,1.52399 2.69355,2.363418 4.41946,2.363418l11.962887,0l-1.090585,14.939093l0,0z" id="svg_6"/>
   <g stroke="null" id="svg_7"/>
   <g stroke="null" id="svg_8"/>
   <g stroke="null" id="svg_9"/>
   <g stroke="null" id="svg_10"/>
   <g stroke="null" id="svg_11"/>
   <g stroke="null" id="svg_12"/>
   <g stroke="null" id="svg_13"/>
   <g stroke="null" id="svg_14"/>
   <g stroke="null" id="svg_15"/>
   <g stroke="null" id="svg_16"/>
   <g stroke="null" id="svg_17"/>
   <g stroke="null" id="svg_18"/>
   <g stroke="null" id="svg_19"/>
   <g stroke="null" id="svg_20"/>
   <g stroke="null" id="svg_21"/>
  </g>
 </g>
</svg>